<svg id="Vrstva_1" data-name="Vrstva 1" xmlns="http://www.w3.org/2000/svg" viewBox="0 0 500.99 512"><defs><style>.cls-1{fill:#1c314d;}</style></defs><title>logout</title><path class="cls-1" d="M496.31,212.5l-80-74.15a16.89,16.89,0,0,0-22.63,0,14.08,14.08,0,0,0,0,21l52.71,48.86H282.32c-8.83,0-16,6.64-16,14.83s7.17,14.83,16,14.83h164l-52.67,48.82a14.09,14.09,0,0,0,0,21,16.86,16.86,0,0,0,22.63,0l79.87-74c.43-.4.84-.81,1.22-1.24a1.56,1.56,0,0,1,.16-.2c.26-.31.51-.62.75-.94s.27-.41.4-.62.26-.4.38-.6.3-.56.44-.84.15-.29.22-.45a10,10,0,0,0,.41-1l.12-.31a12.68,12.68,0,0,0,.37-1.34v0A14.12,14.12,0,0,0,496.31,212.5Z"/><path class="cls-1" d="M325.32,277.34a16,16,0,0,0-16,16v96A26.7,26.7,0,0,1,282.66,416H213.33V85.35a43.06,43.06,0,0,0-29.06-40.58L146,32H282.66a26.7,26.7,0,0,1,26.66,26.67v96a16,16,0,0,0,32,0v-96A58.71,58.71,0,0,0,282.66,0h-240A42.71,42.71,0,0,0,0,42.68v384a43.06,43.06,0,0,0,29.05,40.57L157.44,510a44,44,0,0,0,13.22,2,42.72,42.72,0,0,0,42.67-42.67V448h69.33a58.71,58.71,0,0,0,58.66-58.66v-96A16,16,0,0,0,325.32,277.34Zm-144,192A10.7,10.7,0,0,1,170.66,480a11.53,11.53,0,0,1-3.48-.47L39.4,437A11.08,11.08,0,0,1,32,426.67v-384A10.71,10.71,0,0,1,42.67,32a11.73,11.73,0,0,1,3.47.47L173.92,75.06a11.09,11.09,0,0,1,7.41,10.29Z"/></svg>