<svg id="Capa_1" data-name="Capa 1" xmlns="http://www.w3.org/2000/svg" viewBox="0 0 512 512"><defs><style>.cls-1{fill:#1c314d;}</style></defs><title>user</title><path class="cls-1" d="M338.6,273.27,332.05,271l5.7-3.93A144.67,144.67,0,0,0,400.5,148C400.5,68.32,335.68,3.5,256,3.5S111.5,68.32,111.5,148a144.67,144.67,0,0,0,62.75,119.08L180,271l-6.55,2.26A253,253,0,0,0,3.52,508.5h33c1.87-119.43,99.6-216,219.47-216s217.6,96.57,219.47,216h33A253,253,0,0,0,338.6,273.27ZM144.5,148A111.5,111.5,0,1,1,256,259.5,111.63,111.63,0,0,1,144.5,148Z"/></svg>